<svg id="Layer_6" data-name="Layer 6" xmlns="http://www.w3.org/2000/svg" viewBox="0 0 48.8 49.19"><defs><style>.cls-1{fill:#fff;}</style></defs><title>logozdn</title><path class="cls-1" d="M152.66,255.39h-7a7,7,0,0,0-.78-2.42,6.23,6.23,0,0,0-1.52-1.82,6.78,6.78,0,0,0-2.14-1.15,8.11,8.11,0,0,0-2.61-.4,7.75,7.75,0,0,0-4.42,1.26,8.07,8.07,0,0,0-2.93,3.64,16.81,16.81,0,0,0,0,11.67,7.55,7.55,0,0,0,7.29,4.81,8.84,8.84,0,0,0,2.58-.36,6.84,6.84,0,0,0,2.12-1.08,6.26,6.26,0,0,0,1.54-1.74,6.9,6.9,0,0,0,.86-2.33l7,0a12.66,12.66,0,0,1-1.35,4.34,13.06,13.06,0,0,1-2.89,3.72,13.33,13.33,0,0,1-4.32,2.59,15.68,15.68,0,0,1-5.65,1,15.41,15.41,0,0,1-7.82-2,13.92,13.92,0,0,1-5.43-5.73,21.73,21.73,0,0,1,0-18.21,14.07,14.07,0,0,1,5.47-5.73,15.41,15.41,0,0,1,7.76-2,16.89,16.89,0,0,1,5.28.8,13.56,13.56,0,0,1,4.33,2.32,12.29,12.29,0,0,1,3.07,3.74A13.76,13.76,0,0,1,152.66,255.39Z" transform="translate(-115.21 -234.56)"/><path class="cls-1" d="M118.67,252V238.44a.6.6,0,0,1,.62-.58h14.29c.26,0,.28-1.37.28-1.61V235a.45.45,0,0,0-.46-.44H115.83a.6.6,0,0,0-.62.58V252a.46.46,0,0,0,.47.44h1.44C117.38,252.41,118.67,252.21,118.67,252Z" transform="translate(-115.21 -234.56)"/><path class="cls-1" d="M160.55,266.34v13.53a.6.6,0,0,1-.62.59H145.64c-.26,0-.28,1.36-.28,1.6v1.25a.45.45,0,0,0,.47.44h17.56a.6.6,0,0,0,.62-.58V266.34a.46.46,0,0,0-.47-.44H162.1C161.84,265.9,160.55,266.1,160.55,266.34Z" transform="translate(-115.21 -234.56)"/><path class="cls-1" d="M143.69,262.54a1.89,1.89,0,0,1-.94-.22,1.52,1.52,0,0,1-.6-.63,2.25,2.25,0,0,1,0-1.94,1.54,1.54,0,0,1,.6-.64,1.76,1.76,0,0,1,.91-.23,2,2,0,0,1,.65.11,1.55,1.55,0,0,1,.53.34,1.59,1.59,0,0,1,.36.56,2.39,2.39,0,0,1,.12.79V261h-3v-.61h2.07a.7.7,0,0,0-.1-.38.67.67,0,0,0-.25-.25.8.8,0,0,0-.38-.1.71.71,0,0,0-.39.11.7.7,0,0,0-.27.27.72.72,0,0,0-.1.38V261a1.08,1.08,0,0,0,.09.46.71.71,0,0,0,.28.29.86.86,0,0,0,.43.11.94.94,0,0,0,.3-.05.59.59,0,0,0,.23-.14.48.48,0,0,0,.15-.22l.91.06a1.18,1.18,0,0,1-.28.57,1.46,1.46,0,0,1-.55.38A2.06,2.06,0,0,1,143.69,262.54Z" transform="translate(-115.21 -234.56)"/><path class="cls-1" d="M146,263.8v-4.87h1v.59h0a1.1,1.1,0,0,1,.19-.29,1,1,0,0,1,.32-.25,1.06,1.06,0,0,1,.5-.1,1.33,1.33,0,0,1,.71.2,1.45,1.45,0,0,1,.53.61,2.33,2.33,0,0,1,.19,1,2.29,2.29,0,0,1-.19,1,1.38,1.38,0,0,1-.51.62,1.35,1.35,0,0,1-.73.21,1.16,1.16,0,0,1-.49-.09,1.4,1.4,0,0,1-.33-.24,1.25,1.25,0,0,1-.19-.3h0v1.9Zm1-3.1a1.55,1.55,0,0,0,.09.55.76.76,0,0,0,.25.37.68.68,0,0,0,.4.13.64.64,0,0,0,.41-.14.73.73,0,0,0,.25-.36,1.55,1.55,0,0,0,.09-.55,1.45,1.45,0,0,0-.09-.54.76.76,0,0,0-.25-.37.69.69,0,0,0-.41-.13.6.6,0,0,0-.4.13.69.69,0,0,0-.25.36A1.55,1.55,0,0,0,146.93,260.7Z" transform="translate(-115.21 -234.56)"/><path class="cls-1" d="M152.35,261v-2h1v3.54h-1v-.64h0a1.09,1.09,0,0,1-.4.5,1.18,1.18,0,0,1-.68.19,1.28,1.28,0,0,1-.63-.16,1.1,1.1,0,0,1-.42-.46,1.59,1.59,0,0,1-.15-.72v-2.25h1V261a.69.69,0,0,0,.17.49.55.55,0,0,0,.45.19.76.76,0,0,0,.33-.08.67.67,0,0,0,.25-.25A.82.82,0,0,0,152.35,261Z" transform="translate(-115.21 -234.56)"/></svg>